#!OML:ASF F:\VICON\USERDATA\INSTALL\rory3\rory3.ASF
:FULLY-SPECIFIED
:DEGREES
568
root -1.28517 18.3437 1.55706 -44.684 -84.7742 39.1221
lowerback 5.52931 1.06777 0.26908
upperback 2.67844 1.37015 -1.2381
thorax -0.308432 0.671605 -1.49892
lowerneck -6.4468 -5.28617 -0.029285
upperneck 30.7387 -12.6233 10.8355
head 11.9294 -5.03555 2.3956
rclavicle 4.82053e-015 -5.66536e-015
rhumerus 65.4528 -18.4082 -43.7961
rradius 41.0857
rwrist 41.9202
rhand -53.3184 -10.5135
rfingers 7.12502
rthumb -25.7707 -38.7882
lclavicle 4.82053e-015 -5.66536e-015
lhumerus 68.0943 3.58098 52.7982
lradius 37.534
lwrist -25.0718
lhand -37.9177 36.8497
lfingers 7.12502
lthumb -10.9599 66.5437
rfemur -14.5883 15.888 10.1506
rtibia 34.0698
rfoot -14.5103 -9.89582
rtoes -0.729027
lfemur 0.668978 -0.704057 -11.9231
ltibia 43.0654
lfoot -13.5613 13.0952
ltoes -10.1265
569
root -1.29715 18.3515 1.53369 -45.3311 -84.6154 39.8676
lowerback 5.55273 1.08842 0.295281
upperback 2.59235 1.40074 -1.20872
thorax -0.409182 0.68714 -1.48674
lowerneck -6.2438 -5.29854 0.141207
upperneck 31.1785 -12.8079 10.8565
head 12.0773 -5.10016 2.36192
rclavicle -2.46058e-014 5.96354e-015
rhumerus 65.2333 -17.8063 -42.3409
rradius 39.485
rwrist 42.1362
rhand -52.694 -8.64972
rfingers 7.12502
rthumb -25.1726 -37.0098
lclavicle -2.46058e-014 5.96354e-015
lhumerus 68.2828 2.92376 52.0611
lradius 35.8511
lwrist -25.1515
lhand -36.7158 37.6011
lfingers 7.12502
lthumb -9.80049 67.353
rfemur -14.5829 15.9957 10.0644
rtibia 33.9965
rfoot -14.6044 -10.1465
rtoes -0.206006
lfemur -0.0280294 -1.16952 -12.4632
ltibia 43.3414
lfoot -14.2573 12.1257
ltoes -9.18847
570
root -1.30982 18.3588 1.51181 -45.8547 -84.4939 40.4461
lowerback 5.53749 1.08596 0.352144
upperback 2.5735 1.40152 -1.17338
thorax -0.41956 0.688071 -1.48228
lowerneck -5.94233 -5.31025 0.279509
upperneck 31.3984 -12.9675 10.9823
head 12.1241 -5.15787 2.37808
rclavicle -6.03808e-015 4.37326e-015
rhumerus 64.9208 -17.2311 -40.6787
rradius 38.1829
rwrist 41.8491
rhand -51.9968 -7.26366
rfingers 7.12502
rthumb -24.5044 -35.7159
lclavicle -6.03808e-015 4.37326e-015
lhumerus 68.3058 2.42236 50.7009
lradius 34.6091
lwrist -24.806
lhand -35.6458 37.5922
lfingers 7.12502
lthumb -8.76803 67.3901
rfemur -14.5182 16.2961 10.0144
rtibia 33.9254
rfoot -14.9185 -10.391
rtoes 1.49004
lfemur -0.648853 -1.55596 -12.9579
ltibia 43.5276
lfoot -14.7666 11.1391
ltoes -9.5014
571
root -1.32135 18.3666 1.49482 -45.9623 -84.4333 40.5858
lowerback 5.48853 1.07765 0.523195
upperback 2.60325 1.40017 -1.10666
thorax -0.359267 0.68898 -1.50819
lowerneck -5.59866 -5.29326 0.231681
upperneck 31.4717 -13.0819 11.3071
head 12.1274 -5.20173 2.50744
rclavicle -3.70236e-015 1.53064e-014
rhumerus 64.4796 -16.6836 -39.1467
rradius 37.3868
rwrist 41.6206
rhand -51.0763 -6.81499
rfingers 7.12502
rthumb -23.6218 -35.3839
lclavicle -3.70236e-015 1.53064e-014
lhumerus 68.3998 2.03205 49.4469
lradius 33.3414
lwrist -24.5695
lhand -34.8849 36.6648
lfingers 7.12502
lthumb -8.0337 66.4921
rfemur -14.4317 16.5714 10.0308
rtibia 33.8537
rfoot -15.2128 -10.4997
rtoes 3.13647
lfemur -1.19718 -1.9358 -13.3891
ltibia 43.605
lfoot -15.2081 9.99335
ltoes -9.7596
572
root -1.33101 18.3757 1.48255 -47.502 -84.2597 42.2014
lowerback 5.42941 1.05237 0.569144
upperback 2.62588 1.36875 -1.11158
thorax -0.302839 0.67406 -1.53574
lowerneck -5.50554 -5.16467 0.225824
upperneck 31.8346 -13.0848 11.5405
head 12.2845 -5.17726 2.60481
rclavicle 6.17475e-015 5.76476e-015
rhumerus 64.2225 -16.1298 -38.3095
rradius 36.8384
rwrist 42.0996
rhand -49.9988 -5.9235
rfingers 7.12502
rthumb -22.588 -34.622
lclavicle 6.17475e-015 5.76476e-015
lhumerus 68.4187 1.721 48.4602
lradius 32.203
lwrist -24.5351
lhand -34.4303 35.7698
lfingers 7.12502
lthumb -7.59493 65.6134
rfemur -14.4005 16.8256 9.81379
rtibia 33.7646
rfoot -15.4298 -10.6613
rtoes 3.82872
lfemur -1.73846 -2.37381 -14.0615
ltibia 43.5707
lfoot -15.6345 8.61586
ltoes -8.91049
573
root -1.34425 18.3863 1.47214 -48.8692 -84.0967 43.6493
lowerback 5.3366 0.994572 0.591335
upperback 2.64182 1.29358 -1.08059
thorax -0.237401 0.637094 -1.51021
lowerneck -5.55032 -4.91267 0.367417
upperneck 32.4007 -12.9212 11.5952
head 12.519 -5.06524 2.63032
rclavicle 2.17545e-014 -2.42517e-014
rhumerus 64.115 -15.5222 -37.8626
rradius 36.4287
rwrist 42.4365
rhand -49.1438 -4.87162
rfingers 7.12502
rthumb -21.7671 -33.6676
lclavicle 2.17545e-014 -2.42517e-014
lhumerus 68.2166 1.50956 47.7019
lradius 31.3695
lwrist -24.7326
lhand -34.2883 34.9647
lfingers 7.12502
lthumb -7.45782 64.8132
rfemur -14.353 17.1352 9.59868
rtibia 33.6798
rfoot -15.6791 -10.8461
rtoes 4.35124
lfemur -2.24153 -2.83886 -14.7288
ltibia 43.4088
lfoot -15.969 7.13516
ltoes -7.66777
